<svg width="115" height="44" viewBox="0 0 115 44" fill="none" xmlns="http://www.w3.org/2000/svg">
<g clip-path="url(#clip0_25_639)">
<path d="M13.2374 26.7015H12.6768C9.16508 26.7015 5.65457 26.7015 2.14284 26.7015C1.29343 26.7015 0.628462 26.4206 0.229237 25.6708C-0.179696 24.9019 -0.013453 24.1925 0.494982 23.5093C5.59147 16.6479 10.6811 9.78407 15.7638 2.9179C16.2759 2.22755 16.936 1.88952 17.7951 2.03354C18.5232 2.15257 19.0583 2.58701 19.2513 3.28569C19.3518 3.71529 19.3662 4.15996 19.2937 4.59496C18.8084 8.01813 18.2999 11.4365 17.7988 14.8573C17.7806 14.9871 17.7806 15.118 17.7684 15.2941H18.3291C21.8707 15.2941 25.4124 15.2941 28.954 15.2941C30.0825 15.2941 30.8858 15.9881 30.995 17.0391C31.0545 17.6223 30.7985 18.0984 30.4599 18.5554C27.368 22.7181 24.2794 26.884 21.194 31.0531C19.1983 33.7375 17.2042 36.4287 15.2117 39.1266C14.7118 39.8026 14.0468 40.1169 13.2059 39.9728C12.4778 39.8479 11.9451 39.417 11.7497 38.7195C11.6496 38.2898 11.6356 37.8451 11.7085 37.4102C12.1938 33.9882 12.7035 30.5687 13.2047 27.1479C13.2265 27.0098 13.2265 26.8777 13.2374 26.7015Z" fill="#2E82F2"/>
</g>
<path d="M34.5952 22L38.0654 5.58105H47.207L46.6006 8.43359H40.8955L40.0083 12.6675H45.3203L44.6914 15.5088H39.3794L38.0205 22H34.5952ZM52.1934 22.2246C51.2126 22.2246 50.3478 22.0487 49.5991 21.6968C48.8579 21.3374 48.2777 20.7983 47.8584 20.0796C47.4391 19.3608 47.2295 18.4587 47.2295 17.373C47.2295 16.3249 47.3792 15.3141 47.6787 14.3408C47.9782 13.36 48.4237 12.484 49.0151 11.7129C49.6141 10.9417 50.3478 10.3315 51.2163 9.88232C52.0923 9.43311 53.103 9.2085 54.2485 9.2085C55.6561 9.2085 56.708 9.53044 57.4043 10.1743C58.1081 10.8107 58.46 11.6305 58.46 12.6338C58.46 13.2926 58.3102 13.8916 58.0107 14.4307C57.7188 14.9697 57.2733 15.4339 56.6743 15.8232C56.0754 16.2051 55.3229 16.5008 54.417 16.7104C53.5111 16.9126 52.4479 17.0137 51.2275 17.0137H50.6548C50.6473 17.1035 50.6398 17.1821 50.6323 17.2495C50.6323 17.3169 50.6323 17.3918 50.6323 17.4741C50.6323 18.1479 50.827 18.6833 51.2163 19.0801C51.6056 19.4769 52.1559 19.6753 52.8672 19.6753C53.526 19.6753 54.125 19.6004 54.6641 19.4507C55.2031 19.3009 55.8395 19.0539 56.5732 18.7095V21.2588C55.9144 21.5807 55.2443 21.8241 54.563 21.9888C53.8817 22.146 53.0918 22.2246 52.1934 22.2246ZM51.0254 14.7339H51.5308C52.3993 14.7339 53.103 14.6403 53.6421 14.4531C54.1886 14.266 54.5854 14.0189 54.8325 13.7119C55.0871 13.4049 55.2144 13.0718 55.2144 12.7124C55.2144 12.353 55.1095 12.0872 54.8999 11.915C54.6978 11.7354 54.4095 11.6455 54.0352 11.6455C53.6159 11.6455 53.2004 11.7765 52.7886 12.0386C52.3768 12.3006 52.0137 12.6637 51.6992 13.1279C51.3848 13.5921 51.1602 14.1274 51.0254 14.7339ZM63.0645 22.2246C62.2633 22.2246 61.5633 22.1685 60.9644 22.0562C60.3729 21.9438 59.8188 21.7567 59.3022 21.4946V18.7095C59.8638 19.0314 60.4403 19.2822 61.0317 19.4619C61.6307 19.6341 62.2484 19.7202 62.8848 19.7202C63.2367 19.7202 63.5661 19.6715 63.873 19.5742C64.1875 19.4769 64.4421 19.3271 64.6367 19.125C64.8314 18.9229 64.9287 18.6683 64.9287 18.3613C64.9287 18.1517 64.88 17.9645 64.7827 17.7998C64.6854 17.6351 64.4982 17.4554 64.2212 17.2607C63.9517 17.0586 63.5586 16.8153 63.042 16.5308C62.5254 16.2388 62.0837 15.9393 61.7168 15.6323C61.3574 15.3254 61.0804 14.9772 60.8857 14.5879C60.6986 14.1986 60.605 13.7419 60.605 13.2178C60.605 12.3493 60.7959 11.6193 61.1777 11.0278C61.5596 10.4289 62.1061 9.97591 62.8174 9.66895C63.5361 9.36198 64.3934 9.2085 65.3892 9.2085C66.1154 9.2085 66.8154 9.29085 67.4893 9.45557C68.1631 9.62028 68.8219 9.89355 69.4658 10.2754L68.354 12.6899C67.9123 12.4204 67.4406 12.1958 66.939 12.0161C66.4448 11.8364 65.9507 11.7466 65.4565 11.7466C65.0897 11.7466 64.7603 11.8327 64.4683 12.0049C64.1763 12.1771 64.0303 12.4429 64.0303 12.8022C64.0303 12.9969 64.0827 13.1766 64.1875 13.3413C64.2923 13.4985 64.4683 13.6595 64.7153 13.8242C64.9699 13.9889 65.3105 14.1836 65.7373 14.4082C66.2464 14.6702 66.6956 14.9622 67.085 15.2842C67.4818 15.5986 67.7925 15.9655 68.0171 16.3848C68.2417 16.7965 68.354 17.2869 68.354 17.856C68.354 18.8143 68.1369 19.6191 67.7026 20.2705C67.2684 20.9144 66.6545 21.401 65.8608 21.7305C65.0747 22.0599 64.1426 22.2246 63.0645 22.2246ZM74.542 22.2246C73.5462 22.2246 72.7526 22.015 72.1611 21.5957C71.5697 21.1764 71.2739 20.4202 71.2739 19.3271C71.2739 19.1475 71.2852 18.9528 71.3076 18.7432C71.3301 18.526 71.3638 18.3014 71.4087 18.0693L72.7002 12.0161H70.9932L71.3188 10.3652L73.52 9.42188L75.0024 6.77148H77.1812L76.6309 9.44434H79.8091L79.2476 12.0161H76.0806L74.7891 18.0693C74.7666 18.1816 74.7479 18.2939 74.7329 18.4062C74.7254 18.5111 74.7217 18.5972 74.7217 18.6646C74.7217 18.964 74.8115 19.1774 74.9912 19.3047C75.1709 19.432 75.4105 19.4956 75.71 19.4956C76.0169 19.4956 76.3089 19.4619 76.5859 19.3945C76.8704 19.3197 77.1849 19.2223 77.5293 19.1025V21.6294C77.1699 21.8016 76.7357 21.9438 76.2266 22.0562C75.7249 22.1685 75.1634 22.2246 74.542 22.2246ZM85.0537 22.2246C84.1852 22.2246 83.3953 22.0711 82.6841 21.7642C81.9803 21.4497 81.4188 20.9556 80.9995 20.2817C80.5877 19.6004 80.3818 18.7095 80.3818 17.6089C80.3818 16.703 80.4754 15.8345 80.6626 15.0034C80.8498 14.1724 81.1268 13.4049 81.4937 12.7012C81.8605 11.9974 82.3135 11.3872 82.8525 10.8706C83.3916 10.3465 84.0093 9.93848 84.7056 9.64648C85.4019 9.35449 86.1768 9.2085 87.0303 9.2085C87.779 9.2085 88.4491 9.27962 89.0405 9.42188C89.6395 9.56413 90.1973 9.76253 90.7139 10.0171L89.6807 12.5889C89.2764 12.4167 88.8796 12.2669 88.4902 12.1396C88.1009 12.0124 87.6592 11.9487 87.165 11.9487C86.6335 11.9487 86.158 12.1022 85.7388 12.4092C85.327 12.7161 84.9751 13.1279 84.6831 13.6445C84.3986 14.1611 84.1815 14.7414 84.0317 15.3853C83.882 16.0216 83.8071 16.6693 83.8071 17.3281C83.8071 17.7998 83.882 18.1966 84.0317 18.5186C84.189 18.8405 84.4098 19.0838 84.6943 19.2485C84.9863 19.4132 85.3345 19.4956 85.7388 19.4956C86.3078 19.4956 86.8356 19.4095 87.3223 19.2373C87.8089 19.0576 88.3105 18.8368 88.8271 18.5747V21.3374C88.3031 21.6144 87.7378 21.8315 87.1313 21.9888C86.5249 22.146 85.8324 22.2246 85.0537 22.2246ZM95.0488 22.2246C94.4424 22.2246 93.8696 22.0749 93.3306 21.7754C92.7915 21.4759 92.3498 20.993 92.0054 20.3267C91.6685 19.6603 91.5 18.7769 91.5 17.6763C91.5 16.8527 91.5861 16.0366 91.7583 15.228C91.938 14.4194 92.1925 13.6558 92.522 12.937C92.8589 12.2108 93.2632 11.5706 93.7349 11.0166C94.214 10.4551 94.7531 10.0133 95.3521 9.69141C95.9585 9.36947 96.6136 9.2085 97.3174 9.2085C97.849 9.2085 98.3132 9.28711 98.71 9.44434C99.1068 9.59408 99.4474 9.80745 99.7319 10.0845C100.016 10.3615 100.249 10.6834 100.428 11.0503H100.518L101.158 9.44434H103.764L101.091 22H98.564L98.7212 20.3716H98.6313C98.3319 20.7384 98.0062 21.0604 97.6543 21.3374C97.3024 21.6144 96.9131 21.8315 96.4863 21.9888C96.0596 22.146 95.5804 22.2246 95.0488 22.2246ZM96.374 19.4956C96.8382 19.4956 97.2687 19.3159 97.6655 18.9565C98.0623 18.5897 98.403 18.1143 98.6875 17.5303C98.972 16.9463 99.1742 16.3286 99.2939 15.6772C99.3538 15.3778 99.395 15.0783 99.4175 14.7788C99.4474 14.4718 99.4624 14.1424 99.4624 13.7905C99.4624 13.259 99.3201 12.821 99.0356 12.4766C98.7586 12.1247 98.3768 11.9487 97.8901 11.9487C97.5607 11.9487 97.2463 12.0573 96.9468 12.2744C96.6548 12.484 96.3853 12.776 96.1382 13.1504C95.8911 13.5173 95.674 13.9403 95.4868 14.4194C95.3071 14.8911 95.1686 15.3927 95.0713 15.9243C94.974 16.4559 94.9253 16.9875 94.9253 17.519C94.9253 18.1704 95.0526 18.6646 95.3071 19.0015C95.5617 19.3309 95.9173 19.4956 96.374 19.4956ZM104.583 22L107.245 9.44434H109.828L109.592 11.769H109.716C110.053 11.2375 110.42 10.7808 110.816 10.3989C111.213 10.0171 111.644 9.7251 112.108 9.52295C112.572 9.31331 113.077 9.2085 113.624 9.2085C113.804 9.2085 113.995 9.21973 114.197 9.24219C114.406 9.26465 114.575 9.2946 114.702 9.33203L113.961 12.5889C113.841 12.5439 113.68 12.5028 113.478 12.4653C113.283 12.4279 113.07 12.4092 112.838 12.4092C112.419 12.4092 112.018 12.4953 111.636 12.6675C111.254 12.8322 110.903 13.0793 110.581 13.4087C110.259 13.7381 109.974 14.1536 109.727 14.6553C109.487 15.1494 109.297 15.7259 109.154 16.3848L107.964 22H104.583Z" fill="#F6FBFE"/>
<path opacity="0.8" d="M41.1094 36L39.9541 33.0483H36.2344L35.0918 36H34L37.6689 26.6816H38.5767L42.2266 36H41.1094ZM39.6177 32.0771L38.5386 29.2017C38.3989 28.8377 38.255 28.3913 38.1069 27.8623C38.0138 28.2686 37.8805 28.715 37.707 29.2017L36.6152 32.0771H39.6177ZM44.334 29.043V33.5562C44.334 34.1232 44.4631 34.5464 44.7212 34.8257C44.9793 35.105 45.3835 35.2446 45.9336 35.2446C46.6615 35.2446 47.1925 35.0457 47.5269 34.6479C47.8654 34.2502 48.0347 33.6006 48.0347 32.6992V29.043H49.0884V36H48.2188L48.0664 35.0669H48.0093C47.7935 35.4097 47.493 35.672 47.1079 35.854C46.7271 36.036 46.2912 36.127 45.8003 36.127C44.9539 36.127 44.3192 35.9259 43.896 35.5239C43.4771 35.1219 43.2676 34.4787 43.2676 33.5942V29.043H44.334ZM53.5762 35.2573C53.7624 35.2573 53.9422 35.2446 54.1157 35.2192C54.2892 35.1896 54.4268 35.16 54.5283 35.1304V35.9365C54.4141 35.9915 54.2448 36.036 54.0205 36.0698C53.8005 36.1079 53.6016 36.127 53.4238 36.127C52.0781 36.127 51.4053 35.4181 51.4053 34.0005V29.8618H50.4087V29.354L51.4053 28.916L51.8496 27.4307H52.459V29.043H54.4775V29.8618H52.459V33.9561C52.459 34.375 52.5584 34.6966 52.7573 34.9209C52.9562 35.1452 53.2292 35.2573 53.5762 35.2573ZM61.9297 32.5151C61.9297 33.6493 61.644 34.5358 61.0728 35.1748C60.5015 35.8096 59.7122 36.127 58.7051 36.127C58.083 36.127 57.5308 35.981 57.0483 35.689C56.5659 35.397 56.1935 34.978 55.9312 34.4321C55.6688 33.8862 55.5376 33.2472 55.5376 32.5151C55.5376 31.381 55.8211 30.4987 56.3882 29.8682C56.9552 29.2334 57.7424 28.916 58.7495 28.916C59.7228 28.916 60.4951 29.2397 61.0664 29.8872C61.6419 30.5347 61.9297 31.4106 61.9297 32.5151ZM56.6294 32.5151C56.6294 33.4038 56.8071 34.0809 57.1626 34.5464C57.5181 35.0119 58.0407 35.2446 58.7305 35.2446C59.4202 35.2446 59.9429 35.014 60.2983 34.5527C60.658 34.0872 60.8379 33.408 60.8379 32.5151C60.8379 31.6307 60.658 30.96 60.2983 30.5029C59.9429 30.0417 59.416 29.811 58.7178 29.811C58.028 29.811 57.5075 30.0374 57.1562 30.4902C56.805 30.943 56.6294 31.618 56.6294 32.5151ZM72.6509 36V31.4741C72.6509 30.9198 72.5324 30.505 72.2954 30.23C72.0584 29.9507 71.6903 29.811 71.1909 29.811C70.535 29.811 70.0505 29.9993 69.7373 30.376C69.4242 30.7526 69.2676 31.3324 69.2676 32.1152V36H68.2139V31.4741C68.2139 30.9198 68.0954 30.505 67.8584 30.23C67.6214 29.9507 67.2511 29.811 66.7476 29.811C66.0874 29.811 65.6029 30.0099 65.2939 30.4077C64.9893 30.8013 64.8369 31.4487 64.8369 32.3501V36H63.7832V29.043H64.6401L64.8115 29.9951H64.8623C65.0612 29.6566 65.3405 29.3921 65.7002 29.2017C66.0641 29.0112 66.4704 28.916 66.9189 28.916C68.0065 28.916 68.7174 29.3096 69.0518 30.0967H69.1025C69.3099 29.7327 69.6104 29.445 70.0039 29.2334C70.3975 29.0218 70.846 28.916 71.3496 28.916C72.1367 28.916 72.7249 29.1191 73.1143 29.5254C73.5078 29.9274 73.7046 30.5728 73.7046 31.4614V36H72.6509ZM81.8867 32.5151C81.8867 33.6493 81.6011 34.5358 81.0298 35.1748C80.4585 35.8096 79.6693 36.127 78.6621 36.127C78.04 36.127 77.4878 35.981 77.0054 35.689C76.5229 35.397 76.1506 34.978 75.8882 34.4321C75.6258 33.8862 75.4946 33.2472 75.4946 32.5151C75.4946 31.381 75.7782 30.4987 76.3452 29.8682C76.9123 29.2334 77.6994 28.916 78.7065 28.916C79.6799 28.916 80.4521 29.2397 81.0234 29.8872C81.599 30.5347 81.8867 31.4106 81.8867 32.5151ZM76.5864 32.5151C76.5864 33.4038 76.7642 34.0809 77.1196 34.5464C77.4751 35.0119 77.9977 35.2446 78.6875 35.2446C79.3773 35.2446 79.8999 35.014 80.2554 34.5527C80.6151 34.0872 80.7949 33.408 80.7949 32.5151C80.7949 31.6307 80.6151 30.96 80.2554 30.5029C79.8999 30.0417 79.373 29.811 78.6748 29.811C77.985 29.811 77.4645 30.0374 77.1133 30.4902C76.762 30.943 76.5864 31.618 76.5864 32.5151ZM77.8052 27.9639C78.0083 27.7015 78.2262 27.3841 78.459 27.0117C78.696 26.6393 78.8822 26.3156 79.0176 26.0405H80.2998V26.1738C80.1136 26.4489 79.8364 26.7874 79.4683 27.1895C79.1001 27.5915 78.7806 27.9025 78.5098 28.1226H77.8052V27.9639ZM85.2637 36L82.623 29.043H83.7529L85.251 33.1689C85.5895 34.1338 85.7884 34.7601 85.8477 35.0479H85.8984C85.945 34.8236 86.091 34.3602 86.3364 33.6577C86.5861 32.951 87.1426 31.4128 88.0059 29.043H89.1357L86.4951 36H85.2637ZM93.1919 36.127C92.1636 36.127 91.3511 35.8138 90.7544 35.1875C90.1619 34.5612 89.8657 33.6916 89.8657 32.5786C89.8657 31.4572 90.1408 30.5664 90.6909 29.9062C91.2453 29.2461 91.988 28.916 92.9189 28.916C93.7907 28.916 94.4805 29.2038 94.9883 29.7793C95.4961 30.3506 95.75 31.106 95.75 32.0454V32.7119H90.9575C90.9787 33.5286 91.1839 34.1486 91.5732 34.5718C91.9668 34.995 92.519 35.2065 93.23 35.2065C93.979 35.2065 94.7196 35.05 95.4517 34.7368V35.6763C95.0793 35.8371 94.7259 35.9513 94.3916 36.019C94.0615 36.091 93.6616 36.127 93.1919 36.127ZM92.9062 29.7983C92.3477 29.7983 91.9012 29.9803 91.5669 30.3442C91.2368 30.7082 91.0422 31.2118 90.9829 31.855H94.6201C94.6201 31.1906 94.472 30.6828 94.1758 30.3315C93.8796 29.9761 93.4564 29.7983 92.9062 29.7983ZM98.6064 36H97.5527V29.043H98.6064V36ZM97.4639 27.1577C97.4639 26.9165 97.5231 26.7409 97.6416 26.6309C97.7601 26.5166 97.9082 26.4595 98.0859 26.4595C98.2552 26.4595 98.4012 26.5166 98.5239 26.6309C98.6466 26.7451 98.708 26.9207 98.708 27.1577C98.708 27.3947 98.6466 27.5724 98.5239 27.6909C98.4012 27.8052 98.2552 27.8623 98.0859 27.8623C97.9082 27.8623 97.7601 27.8052 97.6416 27.6909C97.5231 27.5724 97.4639 27.3947 97.4639 27.1577ZM105.329 34.1021C105.329 34.7495 105.087 35.2489 104.605 35.6001C104.123 35.9513 103.445 36.127 102.574 36.127C101.651 36.127 100.932 35.981 100.416 35.689V34.7114C100.75 34.8807 101.107 35.014 101.488 35.1113C101.873 35.2087 102.244 35.2573 102.599 35.2573C103.149 35.2573 103.572 35.1706 103.869 34.9971C104.165 34.8193 104.313 34.5506 104.313 34.1909C104.313 33.9201 104.194 33.6895 103.958 33.499C103.725 33.3044 103.268 33.0758 102.586 32.8135C101.939 32.5723 101.478 32.3628 101.203 32.1851C100.932 32.0031 100.729 31.7979 100.593 31.5693C100.462 31.3408 100.396 31.0679 100.396 30.7505C100.396 30.1834 100.627 29.737 101.088 29.4111C101.55 29.0811 102.182 28.916 102.986 28.916C103.735 28.916 104.467 29.0684 105.183 29.373L104.808 30.23C104.11 29.9422 103.477 29.7983 102.91 29.7983C102.411 29.7983 102.034 29.8766 101.78 30.0332C101.526 30.1898 101.399 30.4056 101.399 30.6807C101.399 30.8669 101.446 31.0256 101.539 31.1567C101.636 31.2879 101.791 31.4128 102.002 31.5312C102.214 31.6497 102.62 31.8211 103.221 32.0454C104.046 32.3459 104.603 32.6484 104.891 32.9531C105.183 33.2578 105.329 33.6408 105.329 34.1021Z" fill="#F6FBFE"/>
<defs>
<clipPath id="clip0_25_639">
<rect width="31" height="38" fill="white" transform="translate(0 2)"/>
</clipPath>
</defs>
</svg>
